Coordinates
version=1
nRows=17
nColumns=24
inDegrees=yes

Units are S.I. units (second, meters, Newtons, ...)
Angles are in degrees.

endheader
time	pelvis_tilt	pelvis_list	pelvis_rotation	pelvis_tx	pelvis_ty	pelvis_tz	hip_flexion_r	hip_adduction_r	hip_rotation_r	knee_angle_r	ankle_angle_r	subtalar_angle_r	mtp_angle_r	hip_flexion_l	hip_adduction_l	hip_rotation_l	knee_angle_l	ankle_angle_l	subtalar_angle_l	mtp_angle_l	lumbar_extension	lumbar_bending	lumbar_rotation
      1.32950000	     -1.70214297	      1.25923893	     -0.99675576	      0.20187248	      1.00942826	      0.31634776	     18.27818753	      0.43595433	     -0.56059166	    -65.83791641	    -13.89578683	    -19.38596144	      4.64541554	      8.01387440	      5.29879358	      0.34521793	     -6.18636122	     -3.41404578	    -12.80372712	      5.80845426	     -2.10260872	      1.07274946	      2.25366839
      1.33366667	     -1.57863930	      1.18142044	     -1.01950647	      0.20696315	      1.01014811	      0.31623550	     18.70206800	      0.55090241	     -0.44572543	    -65.67905055	    -13.00379334	    -19.35465458	      4.05879504	      7.40013744	      5.23588999	      0.43587971	     -5.89614931	     -3.32614263	    -12.89434190	      5.44680468	     -2.26118500	      1.16557446	      2.16903254
      1.33783333	     -1.55053904	      1.08693253	     -1.00637505	      0.21200812	      1.01071052	      0.31610992	     19.21969259	      0.68298731	     -0.37056466	    -65.47106585	    -12.15052469	    -19.56091137	      3.99472659	      6.94103169	      5.15093124	      0.50992505	     -5.70996558	     -3.11904803	    -12.84343066	      5.40651429	     -2.30296041	      1.28527433	      2.16285451
      1.34200000	     -1.50736946	      0.98380215	     -1.00275734	      0.21707563	      1.01127651	      0.31601023	     19.69640432	      0.82796236	     -0.28589470	    -65.18700940	    -11.33079086	    -19.69886370	      3.94565624	      6.45503558	      5.05455619	      0.56401644	     -5.50228955	     -2.94565765	    -12.82075448	      5.37202165	     -2.34772817	      1.40392317	      2.13784910
      1.34616667	     -1.44188295	      0.88443915	     -0.99494076	      0.22212093	      1.01183624	      0.31590402	     20.13496903	      0.96410406	     -0.20521104	    -64.85362633	    -10.49892866	    -19.81589140	      3.89657116	      5.94434626	      4.96382548	      0.63215810	     -5.29056294	     -2.77488558	    -12.80660974	      5.33534482	     -2.43317794	      1.52730797	      2.10542609
      1.35033333	     -1.31671763	      0.78890703	     -0.99642870	      0.22716736	      1.01245773	      0.31579811	     20.48628154	      1.09435400	     -0.10994219	    -64.45134001	     -9.68434024	    -19.79362519	      3.59731262	      5.34678352	      4.87976544	      0.72584328	     -5.03129814	     -2.65207104	    -12.84614406	      5.12227278	     -2.60464809	      1.62910306	      2.01887726
      1.35450000	     -1.29818233	      0.67872130	     -0.97358731	      0.23216879	      1.01288093	      0.31566832	     20.94820518	      1.23471894	     -0.04806634	    -64.01129799	     -8.90836153	    -19.92327977	      3.55077189	      4.90524877	      4.77766931	      0.81296621	     -4.85157402	     -2.45468134	    -12.83359145	      5.08662274	     -2.64381976	      1.78534012	      2.01291901
      1.35866667	     -1.20428652	      0.58553369	     -0.95770890	      0.23717908	      1.01338992	      0.31555798	     21.30607066	      1.35952868	      0.03165763	    -63.51703231	     -8.08179663	    -19.92813991	      0.76435854	      4.35345864	      4.69587930	      0.94057963	     -4.61508160	     -2.27792369	    -12.85271739	      3.11872456	     -2.77758446	      1.88573901	      1.96084197
      1.36283333	     -1.16930861	      0.47316570	     -0.92926502	      0.24217536	      1.01377846	      0.31545290	     21.70848533	      1.50262120	      0.09548775	    -62.95567154	     -7.33715930	    -19.99451699	      0.76683726	      3.89977017	      4.58840108	      1.01313492	     -4.44245237	     -2.09031158	    -12.83898582	      3.12745425	     -2.83303917	      2.01727189	      1.93226523
      1.36700000	     -1.08499026	      0.37974617	     -0.90651887	      0.24717184	      1.01419290	      0.31533838	     22.04381978	      1.61605744	      0.15871135	    -62.35222251	     -6.59877749	    -20.02376130	      0.76107189	      3.37456997	      4.50295350	      1.09849550	     -4.22964297	     -1.91275591	    -12.83432560	      3.13347508	     -2.95359986	      2.13053972	      1.87602542
      1.37116667	     -1.04540893	      0.25145289	     -0.86406541	      0.25215739	      1.01454189	      0.31522110	     22.39811055	      1.76971302	      0.20734869	    -61.66826548	     -5.92046524	    -20.07699397	      0.75705313	      2.91937162	      4.37751349	      1.19335556	     -4.05873129	     -1.73937021	    -12.84371287	      3.13536588	     -3.01802210	      2.28374197	      1.84311229
      1.37533333	     -0.98431994	      0.14743915	     -0.82454398	      0.25713353	      1.01486049	      0.31510809	     22.71923175	      1.89121355	      0.25627317	    -60.95118791	     -5.24718471	    -20.12424631	      0.75013753	      2.43621427	      4.27820090	      1.28797316	     -3.87395144	     -1.56110201	    -12.85411931	      3.13498134	     -3.11093790	      2.40837338	      1.79623218
      1.37950000	     -0.88657616	      0.05534538	     -0.78865489	      0.26211492	      1.01519866	      0.31499076	     22.98311330	      1.99470735	      0.30634674	    -60.18558808	     -4.61461555	    -20.14362372	      0.72688578	      1.89975106	      4.19228211	      1.38967258	     -3.65939023	     -1.39254541	    -12.87363220	      3.12754334	     -3.25530505	      2.51706264	      1.72047747
      1.38366667	     -0.84609981	     -0.06627880	     -0.73089701	      0.26708067	      1.01544465	      0.31487145	     23.28137853	      2.13026911	      0.33883705	    -59.34749579	     -4.03135532	    -20.19419055	      0.71265381	      1.45587296	      4.07083888	      1.49154123	     -3.50466323	     -1.21348757	    -12.88839933	      3.12301515	     -3.32184962	      2.66383825	      1.68556292
      1.38783333	     -0.79125308	     -0.16667393	     -0.67653777	      0.27204684	      1.01564967	      0.31475693	     23.55227773	      2.24009074	      0.37432690	    -58.47622403	     -3.47534284	    -20.23974254	      0.69216517	      0.99049898	      3.97170981	      1.59706102	     -3.33572938	     -1.02846366	    -12.90077309	      3.11660056	     -3.40855155	      2.78539643	      1.63077901
      1.39200000	     -0.75813567	     -0.26104245	     -0.61680644	      0.27699883	      1.01578418	      0.31464291	     23.83321332	      2.33743638	      0.39873764	    -57.56393694	     -2.96330857	    -20.28715938	      0.67109341	      0.55508788	      3.87750156	      1.69979738	     -3.17579415	     -0.84310873	    -12.91867900	      3.11021756	     -3.48140260	      2.88933365	      1.57815964
      1.39616667	     -0.66996802	     -0.33679098	     -0.56199818	      0.28195746	      1.01596480	      0.31452857	     24.03267331	      2.41467443	      0.43626673	    -56.60089347	     -2.49742318	    -20.33130040	      0.61763765	      0.04623605	      3.80383198	      1.81871227	     -2.98760256	     -0.67086908	    -12.94570368	      3.09263837	     -3.61280038	      2.98205834	      1.47624519
